<?xml version="1.0" encoding="utf-8"?>
<!-- Generator: Adobe Illustrator 23.1.0, SVG Export Plug-In . SVG Version: 6.00 Build 0)  -->
<svg version="1.1" id="Слой_1" xmlns="http://www.w3.org/2000/svg" xmlns:xlink="http://www.w3.org/1999/xlink" x="0px" y="0px"
	 viewBox="0 0 1189.06 1189.06" style="enable-background:new 0 0 1189.06 1189.06;" xml:space="preserve">

<g>
	<path class="st2" d="M1039.69,823.81H149.38c-7.54,0-14.37-4.46-17.42-11.36c-12.11-27.56-18.24-56.45-18.24-86.01
		c0-117.36,95.49-212.85,212.88-212.85c5.61,0,11.07,0.3,16.53,0.78c50.62-92.33,145.77-149.11,251.47-149.11
		c105.74,0,200.85,56.79,251.36,149.11c5.5-0.48,11.03-0.78,16.64-0.78c117.29,0,212.73,95.49,212.73,212.85
		c0,29.93-6.17,58.9-18.27,86.09C1053.98,819.43,1047.19,823.81,1039.69,823.81z M162.23,785.78h864.64
		c6.95-19.02,10.44-38.92,10.44-59.35c0-96.38-78.36-174.82-174.7-174.82c-8.47,0-16.68,0.82-24.85,1.97
		c-8.62,0.85-16.12-3.16-19.72-10.47c-42.19-86.24-127.8-139.83-223.43-139.83c-95.56,0-181.24,53.59-223.58,139.87
		c-3.6,7.39-11.55,11.48-19.76,10.44c-8.02-1.15-16.23-1.97-24.66-1.97c-96.41,0-174.85,78.44-174.85,174.82
		C151.76,746.64,155.28,766.54,162.23,785.78z"/>
</g>


</svg>
