<?xml version="1.0" encoding="utf-8"?>
<!-- Generator: Adobe Illustrator 23.1.0, SVG Export Plug-In . SVG Version: 6.00 Build 0)  -->
<svg version="1.1" id="Слой_1" xmlns="http://www.w3.org/2000/svg" xmlns:xlink="http://www.w3.org/1999/xlink" x="0px" y="0px"
	 viewBox="0 0 1189.06 1189.06" style="enable-background:new 0 0 1189.06 1189.06;" xml:space="preserve">
<g>
	<g>
		<path class="st2" d="M594.46,276.42c-114.97,0-208.51,93.46-208.51,208.44c0,115.12,93.54,208.73,208.51,208.73
			c115.05,0,208.74-93.61,208.74-208.73C803.19,369.88,709.51,276.42,594.46,276.42z M594.46,609.85
			c-68.87,0-124.77-56.13-124.77-124.99c0-68.79,55.9-124.7,124.77-124.7c68.87,0,125,55.91,125,124.7
			C719.45,553.73,663.33,609.85,594.46,609.85z"/>
	</g>
	<g>
		<path class="st2" d="M594.46,12.74c-260.29,0-472.12,211.83-472.12,472.12c0,201,126.24,376.96,315.97,443.69l119.1,225.53
			c7.3,13.55,21.51,22.24,37.05,22.24c15.55,0,29.69-8.54,36.98-22.24L750.6,928.56c189.88-66.52,316.12-242.69,316.12-443.69
			C1066.73,224.57,854.83,12.74,594.46,12.74z M709.14,854.09c-10.6,3.31-19.44,10.75-24.6,20.4l-90.08,170.36L504.6,874.49
			c-5.08-9.65-14.14-17.09-24.59-20.4c-163.88-50.97-273.92-199.23-273.92-369.23c0-214.11,174.19-388.38,388.37-388.38
			c214.27,0,388.53,174.27,388.53,388.38C982.99,654.86,873.02,803.12,709.14,854.09z"/>
	</g>
</g>
</svg>
