<?xml version="1.0" encoding="utf-8"?>
<!-- Generator: Adobe Illustrator 23.1.0, SVG Export Plug-In . SVG Version: 6.00 Build 0)  -->
<svg version="1.1" id="Слой_1" xmlns="http://www.w3.org/2000/svg" xmlns:xlink="http://www.w3.org/1999/xlink" x="0px" y="0px"
	 viewBox="0 0 1189.06 1189.06" style="enable-background:new 0 0 1189.06 1189.06;" xml:space="preserve">




<g>
	<g>
		<path class="st4" fill="#FFFFFF" d="M594.53,636.44c-77.41,0-140.38-62.97-140.38-140.38s62.97-140.38,140.38-140.38s140.38,62.97,140.38,140.38
			S671.94,636.44,594.53,636.44z M594.53,431.09c-35.8,0-64.96,29.13-64.96,64.96s29.17,64.96,64.96,64.96s64.96-29.13,64.96-64.96
			S630.33,431.09,594.53,431.09z"/>
	</g>
	<g>
		<path class="st4"  fill="#FFFFFF" d="M791.48,833.39c-20.84,0-37.71-16.87-37.71-37.71c0-87.8-71.44-159.24-159.24-159.24
			s-159.24,71.44-159.24,159.24c0,20.84-16.87,37.71-37.71,37.71c-20.84,0-37.71-16.87-37.71-37.71
			c0-129.41,105.25-234.66,234.66-234.66s234.66,105.25,234.66,234.66C829.19,816.53,812.33,833.39,791.48,833.39z"/>
	</g>
</g>

</svg>
