<?xml version="1.0" encoding="utf-8"?>
<!-- Generator: Adobe Illustrator 23.1.0, SVG Export Plug-In . SVG Version: 6.00 Build 0)  -->
<svg version="1.1" id="Слой_1" xmlns="http://www.w3.org/2000/svg" xmlns:xlink="http://www.w3.org/1999/xlink" x="0px" y="0px"
	 viewBox="0 0 1189.06 1189.06" style="enable-background:new 0 0 1189.06 1189.06;" xml:space="preserve">

<g>
	<g>
		<g>
			<path class="st0" d="M485.9,861.55c-1.08,0-2.15-0.07-3.23-0.3c-10.36-1.71-17.31-11.59-15.56-21.91l26-152.2
				c1.82-10.32,11.88-17.38,21.95-15.52c10.36,1.71,17.31,11.59,15.56,21.91l-26,152.2C503.02,855.01,495,861.55,485.9,861.55z"/>
		</g>
		<g>
			<path class="st0" d="M581.57,861.55c-1.08,0-2.15-0.07-3.23-0.3c-10.36-1.71-17.31-11.59-15.56-21.91l26-152.2
				c1.78-10.32,12-17.38,21.95-15.52c10.36,1.71,17.31,11.59,15.56,21.91l-26,152.2C598.69,855.01,590.67,861.55,581.57,861.55z"/>
		</g>
		<g>
			<path class="st0" d="M677.24,861.55c-1.08,0-2.15-0.07-3.23-0.3c-10.36-1.71-17.31-11.59-15.56-21.91l26-152.2
				c1.82-10.32,11.77-17.38,21.95-15.52c10.36,1.71,17.31,11.59,15.56,21.91l-26,152.2C694.36,855.01,686.34,861.55,677.24,861.55z"
				/>
		</g>
	</g>
	<g>
		<path class="st0" d="M1039.69,786.08H767.97c-10.51,0-19.02-8.54-19.02-19.02c0-10.47,8.5-19.02,19.02-19.02h258.9
			c6.95-19.02,10.44-38.92,10.44-59.35c0-96.38-78.36-174.82-174.7-174.82c-8.47,0-16.68,0.82-24.85,1.97
			c-8.32,0.85-16.08-3.16-19.72-10.47c-42.19-86.24-127.8-139.83-223.43-139.83c-95.56,0-181.24,53.59-223.58,139.87
			c-3.6,7.39-11.44,11.48-19.76,10.44c-8.02-1.15-16.23-1.97-24.66-1.97c-96.41,0-174.85,78.44-174.85,174.82
			c0,20.2,3.53,40.11,10.47,59.35h258.86c10.51,0,19.02,8.54,19.02,19.02c0,10.47-8.5,19.02-19.02,19.02H149.38
			c-7.54,0-14.37-4.46-17.42-11.36c-12.11-27.56-18.24-56.45-18.24-86.01c0-117.36,95.49-212.85,212.88-212.85
			c5.61,0,11.07,0.3,16.53,0.78c50.62-92.33,145.77-149.11,251.47-149.11c105.74,0,200.85,56.79,251.36,149.11
			c5.5-0.48,11.03-0.78,16.64-0.78c117.29,0,212.73,95.49,212.73,212.85c0,29.93-6.17,58.9-18.27,86.09
			C1053.98,781.7,1047.19,786.08,1039.69,786.08z"/>
	</g>
</g>
</svg>
