<?xml version="1.0" encoding="utf-8"?>
<!-- Generator: Adobe Illustrator 23.1.0, SVG Export Plug-In . SVG Version: 6.00 Build 0)  -->
<svg version="1.1" id="Слой_1" xmlns="http://www.w3.org/2000/svg" xmlns:xlink="http://www.w3.org/1999/xlink" x="0px" y="0px"
	 viewBox="0 0 1189.06 1189.06" style="enable-background:new 0 0 1189.06 1189.06;" xml:space="preserve">


<g>
	<g>
		<path class="st4" fill="#FFFFFF" d="M560.28,850.81c-160.2,0-290.49-130.33-290.49-290.57c0-160.16,130.29-290.49,290.49-290.49
			s290.49,130.33,290.49,290.49C850.77,720.48,720.48,850.81,560.28,850.81z M560.28,307.47c-139.35,0-252.78,113.39-252.78,252.78
			c0,139.43,113.43,252.85,252.78,252.85s252.78-113.43,252.78-252.85C813.06,420.86,699.64,307.47,560.28,307.47z"/>
	</g>
	<g>
		<path class="st4" fill="#FFFFFF" d="M900.42,919.31c-4.86,0-9.65-1.84-13.33-5.52L739.04,765.67c-7.37-7.37-7.37-19.3,0-26.66
			c7.44-7.4,19.37-7.33,26.66,0l148.04,148.12c7.37,7.37,7.37,19.3,0,26.66C910.07,917.47,905.2,919.31,900.42,919.31z"/>
	</g>
</g>


</svg>
