<?xml version="1.0" encoding="utf-8"?>
<!-- Generator: Adobe Illustrator 23.1.0, SVG Export Plug-In . SVG Version: 6.00 Build 0)  -->
<svg version="1.1" id="Слой_1" xmlns="http://www.w3.org/2000/svg" xmlns:xlink="http://www.w3.org/1999/xlink" x="0px" y="0px"
	 viewBox="0 0 1189.06 1189.06" style="enable-background:new 0 0 1189.06 1189.06;" xml:space="preserve">


<g>
	<g>
		<g>
			<path class="st3" d="M1039.69,786.08H767.97c-10.51,0-19.02-8.54-19.02-19.02c0-10.47,8.5-19.02,19.02-19.02h258.9
				c6.95-19.02,10.44-38.92,10.44-59.35c0-96.38-78.36-174.82-174.7-174.82c-8.47,0-16.68,0.82-24.85,1.97
				c-8.32,0.85-16.08-3.16-19.72-10.47c-42.19-86.24-127.8-139.83-223.43-139.83c-95.56,0-181.24,53.59-223.58,139.87
				c-3.6,7.39-11.44,11.48-19.76,10.44c-8.02-1.15-16.23-1.97-24.66-1.97c-96.41,0-174.85,78.44-174.85,174.82
				c0,20.2,3.53,40.11,10.47,59.35h258.86c10.51,0,19.02,8.54,19.02,19.02c0,10.47-8.5,19.02-19.02,19.02H149.38
				c-7.54,0-14.37-4.46-17.42-11.36c-12.11-27.56-18.24-56.45-18.24-86.01c0-117.36,95.49-212.85,212.88-212.85
				c5.61,0,11.07,0.3,16.53,0.78c50.62-92.33,145.77-149.11,251.47-149.11c105.74,0,200.85,56.79,251.36,149.11
				c5.5-0.48,11.03-0.78,16.64-0.78c117.29,0,212.73,95.49,212.73,212.85c0,29.93-6.17,58.9-18.27,86.09
				C1053.98,781.7,1047.19,786.08,1039.69,786.08z"/>
		</g>
	</g>
	<g>
		<g>
			<path class="st3" d="M574.53,666.68c0,66.89,0,133.79,0,200.68c0,10.46,9.2,20.48,20,20c10.84-0.49,20-8.79,20-20
				c0-66.89,0-133.79,0-200.68c0-10.46-9.2-20.48-20-20C583.7,647.17,574.53,655.47,574.53,666.68L574.53,666.68z"/>
		</g>
	</g>
	<g>
		<g>
			<path class="st3" d="M517.73,834.46c57.93-33.45,115.86-66.89,173.8-100.34c9.06-5.23,13.01-18.32,7.17-27.36
				c-5.9-9.14-17.67-12.77-27.36-7.18c-57.93,33.45-115.86,66.89-173.8,100.34c-9.06,5.23-13.01,18.32-7.18,27.36
				C496.26,836.43,508.03,840.06,517.73,834.46L517.73,834.46z"/>
		</g>
	</g>
	<g>
		<g>
			<path class="st3" d="M691.52,799.92c-57.93-33.45-115.86-66.89-173.8-100.34c-9.06-5.23-22.3-2.41-27.36,7.18
				c-5.04,9.54-2.5,21.78,7.18,27.36c57.93,33.45,115.86,66.89,173.8,100.34c9.06,5.23,22.3,2.41,27.36-7.18
				C703.74,817.74,701.2,805.51,691.52,799.92L691.52,799.92z"/>
		</g>
	</g>
</g>
</svg>
