<?xml version="1.0" encoding="utf-8"?>
<!-- Generator: Adobe Illustrator 23.1.0, SVG Export Plug-In . SVG Version: 6.00 Build 0)  -->
<svg version="1.1" id="Слой_1" xmlns="http://www.w3.org/2000/svg" xmlns:xlink="http://www.w3.org/1999/xlink" x="0px" y="0px"
	 viewBox="0 0 1189.06 1189.06" style="enable-background:new 0 0 1189.06 1189.06;" xml:space="preserve">



<g>
	<g>
		<path class="st2" d="M594.57,814.64c-121.37,0-220.16-98.79-220.16-220.2c0-121.37,98.79-220.09,220.16-220.09
			s220.16,98.72,220.16,220.09C814.73,715.85,715.94,814.64,594.57,814.64z M594.57,412.38c-100.42,0-182.13,81.67-182.13,182.06
			c0,100.46,81.71,182.17,182.13,182.17S776.7,694.9,776.7,594.44C776.7,494.05,694.99,412.38,594.57,412.38z"/>
	</g>
	<g>
		<path class="st2" d="M594.57,312.33c-10.47,0-19.02-8.5-19.02-19.02v-79.26c0-10.51,8.54-19.02,19.02-19.02
			c10.47,0,19.02,8.5,19.02,19.02v79.26C613.58,303.82,605.04,312.33,594.57,312.33z"/>
	</g>
	<g>
		<path class="st2" d="M381.61,400.5c-4.9,0-9.73-1.86-13.44-5.57l-56.08-56.08c-7.43-7.43-7.43-19.46,0-26.89s19.46-7.43,26.89,0
			l56.08,56.08c7.43,7.43,7.43,19.46,0,26.89C391.34,398.64,386.51,400.5,381.61,400.5z"/>
	</g>
	<g>
		<path class="st2" d="M293.37,613.45h-79.33c-10.47,0-19.02-8.5-19.02-19.02c0-10.51,8.54-19.02,19.02-19.02h79.33
			c10.47,0,19.02,8.5,19.02,19.02C312.38,604.95,303.84,613.45,293.37,613.45z"/>
	</g>
	<g>
		<path class="st2" d="M325.46,882.53c-4.9,0-9.73-1.86-13.44-5.57c-7.43-7.43-7.43-19.46,0-26.89l56.08-56.08
			c7.43-7.43,19.46-7.43,26.89,0c7.43,7.43,7.43,19.46,0,26.89l-56.08,56.08C335.19,880.67,330.36,882.53,325.46,882.53z"/>
	</g>
	<g>
		<path class="st2" d="M594.49,994.02c-10.47,0-19.02-8.54-19.02-19.02v-79.33c0-10.47,8.54-19.02,19.02-19.02
			c10.47,0,19.02,8.54,19.02,19.02v79.33C613.51,985.48,604.97,994.02,594.49,994.02z"/>
	</g>
	<g>
		<path class="st2" d="M863.53,882.6c-4.9,0-9.73-1.86-13.44-5.57l-56.08-56.08c-7.43-7.43-7.43-19.46,0-26.89
			c7.43-7.43,19.46-7.43,26.89,0l56.08,56.08c7.43,7.43,7.43,19.46,0,26.89C873.26,880.75,868.44,882.6,863.53,882.6z"/>
	</g>
	<g>
		<path class="st2" d="M975.03,613.6L975.03,613.6l-79.33-0.07c-10.55,0-19.02-8.54-19.02-19.02c0-10.51,8.54-19.02,19.02-19.02l0,0
			l79.33,0.07c10.55,0,19.02,8.54,19.02,19.02C994.04,605.1,985.5,613.6,975.03,613.6z"/>
	</g>
	<g>
		<path class="st2" d="M807.53,400.57c-4.9,0-9.73-1.86-13.44-5.57c-7.43-7.43-7.43-19.46,0-26.89l56.08-56.01
			c7.5-7.5,19.54-7.35,26.89,0c7.43,7.43,7.43,19.46,0,26.89L820.97,395C817.26,398.71,812.35,400.57,807.53,400.57z"/>
	</g>
</g>




</svg>
