<?xml version="1.0" encoding="utf-8"?>
<!-- Generator: Adobe Illustrator 23.1.0, SVG Export Plug-In . SVG Version: 6.00 Build 0)  -->
<svg version="1.1" id="Слой_1" xmlns="http://www.w3.org/2000/svg" xmlns:xlink="http://www.w3.org/1999/xlink" x="0px" y="0px"
	 viewBox="0 0 1189.06 1189.06" style="enable-background:new 0 0 1189.06 1189.06;" xml:space="preserve">


<g>
	<g>
		<g>
			<path class="st2" d="M1039.7,744.56H767.99c-10.47,0-19.02-8.54-19.02-19.02s8.54-19.02,19.02-19.02h258.94
				c6.91-19.02,10.4-38.92,10.4-59.35c0-96.38-78.36-174.82-174.7-174.82c-8.47,0-16.64,0.82-24.88,1.97
				c-7.95,1.11-16.12-3.08-19.68-10.47c-42.19-86.24-127.83-139.83-223.47-139.83c-95.56,0-181.24,53.59-223.58,139.87
				c-3.64,7.39-11.62,11.48-19.76,10.44c-8.02-1.15-16.23-1.97-24.66-1.97c-96.41,0-174.85,78.44-174.85,174.82
				c0,20.2,3.53,40.11,10.47,59.35h258.86c10.51,0,19.02,8.54,19.02,19.02s-8.5,19.02-19.02,19.02H149.36
				c-7.54,0-14.37-4.46-17.42-11.36c-12.11-27.56-18.24-56.45-18.24-86.01c0-117.36,95.49-212.85,212.88-212.85
				c5.61,0,11.07,0.3,16.53,0.78C393.74,342.78,488.89,286,594.59,286c105.74,0,200.89,56.79,251.4,149.11
				c5.5-0.48,10.99-0.78,16.64-0.78c117.29,0,212.73,95.49,212.73,212.85c0,29.93-6.17,58.9-18.27,86.09
				C1054.04,740.17,1047.21,744.56,1039.7,744.56z"/>
		</g>
	</g>
	<g>
		<path class="st2" d="M576.39,903.07c-1.63,0-3.27-0.22-4.9-0.67c-8.32-2.15-14.11-9.73-14.11-18.35V773.97h-56.75
			c-5.42,0-10.62-2.3-14.22-6.39c-3.6-4.09-5.31-9.51-4.64-14.86l22.32-187.89c1.11-9.58,9.25-16.79,18.87-16.79
			c0.04,0,0.07,0,0.07,0l144.25,0.67c5.79,0.04,11.29,2.67,14.86,7.24c3.57,4.53,4.9,10.47,3.57,16.12L661.33,676h23.47
			c6.76,0,13.07,3.64,16.42,9.51c3.42,5.87,3.49,13.07,0.07,18.94L592.88,893.49C589.43,899.5,583.07,903.07,576.39,903.07z
			 M522.02,735.94h54.37c10.51,0,19.02,8.54,19.02,19.02v57.71l56.56-98.64h-14.63c-5.79,0-11.29-2.67-14.93-7.21
			c-3.57-4.53-4.9-10.47-3.57-16.12l24.36-104.06l-103.36-0.48L522.02,735.94z"/>
	</g>
</g>

</svg>
